<mxfile host="drawio-plugin" modified="2023-04-10T10:04:36.539Z" agent="5.0 (Windows NT 6.2; Win64; x64) AppleWebKit/537.36 (KHTML, like Gecko) Chrome/104.0.5112.102 Safari/537.36" etag="NYmqLpLZVLHwPe1yPsMa" version="20.5.3" type="embed"><diagram id="C5RBs43oDa-KdzZeNtuy" name="Page-1"><mxGraphModel dx="1752" dy="734" grid="1" gridSize="10" guides="1" tooltips="1" connect="1" arrows="1" fold="1" page="1" pageScale="1" pageWidth="827" pageHeight="1169" math="0" shadow="0"><root><mxCell id="WIyWlLk6GJQsqaUBKTNV-0"/><mxCell id="WIyWlLk6GJQsqaUBKTNV-1" parent="WIyWlLk6GJQsqaUBKTNV-0"/><mxCell id="71" value="" style="group" parent="WIyWlLk6GJQsqaUBKTNV-1" vertex="1" connectable="0"><mxGeometry x="140" y="300" width="1060" height="570" as="geometry"/></mxCell><mxCell id="70" value="" style="rounded=0;whiteSpace=wrap;html=1;fontSize=20;" parent="71" vertex="1"><mxGeometry width="1060" height="570" as="geometry"/></mxCell><mxCell id="36" value="For movement and attack, would need a manager. To do this, we could: Use super() to specify booleans for which components the game object can have, try and make a singleton for each game object when they inherit from movement and attack, NEED MORE IDEAS" style="text;html=1;strokeColor=none;fillColor=none;align=center;verticalAlign=middle;whiteSpace=wrap;rounded=0;fontSize=20;" parent="71" vertex="1"><mxGeometry x="610" y="80" width="360" height="170" as="geometry"/></mxCell><mxCell id="37" value="" style="group" parent="71" vertex="1" connectable="0"><mxGeometry x="14" y="200" width="520" height="130.04111111111104" as="geometry"/></mxCell><mxCell id="erv2LzWRWnAIhKKiP17V-84" value="" style="rounded=0;whiteSpace=wrap;html=1;container=0;" parent="37" vertex="1"><mxGeometry width="520" height="129" as="geometry"/></mxCell><mxCell id="erv2LzWRWnAIhKKiP17V-60" value="Movement Base" style="swimlane;fontStyle=0;align=center;verticalAlign=top;childLayout=stackLayout;horizontal=1;startSize=88;horizontalStack=0;resizeParent=1;resizeLast=0;collapsible=1;marginBottom=0;rounded=0;shadow=0;strokeWidth=1;container=0;" parent="37" vertex="1"><mxGeometry x="10" y="9.809999999999945" width="160" height="29.19" as="geometry"><mxRectangle x="230" y="140" width="160" height="26" as="alternateBounds"/></mxGeometry></mxCell><mxCell id="erv2LzWRWnAIhKKiP17V-64" value="Attack Base" style="swimlane;fontStyle=0;align=center;verticalAlign=top;childLayout=stackLayout;horizontal=1;startSize=88;horizontalStack=0;resizeParent=1;resizeLast=0;collapsible=1;marginBottom=0;rounded=0;shadow=0;strokeWidth=1;container=0;" parent="37" vertex="1"><mxGeometry x="180" y="9.809999999999945" width="160" height="29.19" as="geometry"><mxRectangle x="230" y="140" width="160" height="26" as="alternateBounds"/></mxGeometry></mxCell><mxCell id="erv2LzWRWnAIhKKiP17V-72" value="Collectible" style="swimlane;fontStyle=0;align=center;verticalAlign=top;childLayout=stackLayout;horizontal=1;startSize=88;horizontalStack=0;resizeParent=1;resizeLast=0;collapsible=1;marginBottom=0;rounded=0;shadow=0;strokeWidth=1;container=0;" parent="37" vertex="1"><mxGeometry x="10" y="49" width="160" height="31.04" as="geometry"><mxRectangle x="230" y="140" width="160" height="26" as="alternateBounds"/></mxGeometry></mxCell><mxCell id="erv2LzWRWnAIhKKiP17V-76" value="Actionable" style="swimlane;fontStyle=0;align=center;verticalAlign=top;childLayout=stackLayout;horizontal=1;startSize=88;horizontalStack=0;resizeParent=1;resizeLast=0;collapsible=1;marginBottom=0;rounded=0;shadow=0;strokeWidth=1;container=0;" parent="37" vertex="1"><mxGeometry x="180" y="49" width="160" height="31.04" as="geometry"><mxRectangle x="230" y="140" width="160" height="26" as="alternateBounds"/></mxGeometry></mxCell><mxCell id="erv2LzWRWnAIhKKiP17V-85" value="Base Components" style="text;html=1;align=center;verticalAlign=middle;resizable=0;points=[];autosize=1;strokeColor=none;fillColor=none;fontSize=30;container=0;" parent="37" vertex="1"><mxGeometry x="125" y="80.04111111111104" width="270" height="50" as="geometry"/></mxCell><mxCell id="19" value="Inventory" style="swimlane;fontStyle=0;align=center;verticalAlign=top;childLayout=stackLayout;horizontal=1;startSize=88;horizontalStack=0;resizeParent=1;resizeLast=0;collapsible=1;marginBottom=0;rounded=0;shadow=0;strokeWidth=1;container=0;" parent="37" vertex="1"><mxGeometry x="346" y="49.51999999999998" width="160" height="30" as="geometry"><mxRectangle x="230" y="140" width="160" height="26" as="alternateBounds"/></mxGeometry></mxCell><mxCell id="31" value="Characteristic Base" style="swimlane;fontStyle=0;align=center;verticalAlign=top;childLayout=stackLayout;horizontal=1;startSize=30;horizontalStack=0;resizeParent=1;resizeLast=0;collapsible=1;marginBottom=0;rounded=0;shadow=0;strokeWidth=1;container=0;" parent="37" vertex="1"><mxGeometry x="346" y="9.809999999999945" width="160" height="30" as="geometry"><mxRectangle x="230" y="140" width="160" height="26" as="alternateBounds"/></mxGeometry></mxCell><mxCell id="38" value="" style="group" parent="71" vertex="1" connectable="0"><mxGeometry x="59" y="14" width="430" height="186" as="geometry"/></mxCell><mxCell id="erv2LzWRWnAIhKKiP17V-57" value="" style="rounded=0;whiteSpace=wrap;html=1;container=0;" parent="38" vertex="1"><mxGeometry width="430" height="186" as="geometry"/></mxCell><mxCell id="zkfFHV4jXpPFQw0GAbJ--0" value="Game Object" style="swimlane;fontStyle=0;align=center;verticalAlign=top;childLayout=stackLayout;horizontal=1;startSize=51;horizontalStack=0;resizeParent=1;resizeLast=0;collapsible=1;marginBottom=0;rounded=0;shadow=0;strokeWidth=1;container=0;" parent="38" vertex="1"><mxGeometry x="135" y="105" width="160" height="31" as="geometry"><mxRectangle x="230" y="140" width="160" height="26" as="alternateBounds"/></mxGeometry></mxCell><mxCell id="erv2LzWRWnAIhKKiP17V-38" value="arcade.Sprite" style="swimlane;fontStyle=0;align=center;verticalAlign=top;childLayout=stackLayout;horizontal=1;startSize=50;horizontalStack=0;resizeParent=1;resizeLast=0;collapsible=1;marginBottom=0;rounded=0;shadow=0;strokeWidth=1;container=0;" parent="38" vertex="1"><mxGeometry x="135" y="15" width="160" height="30" as="geometry"><mxRectangle x="230" y="140" width="160" height="26" as="alternateBounds"/></mxGeometry></mxCell><mxCell id="erv2LzWRWnAIhKKiP17V-42" value="" style="edgeStyle=orthogonalEdgeStyle;rounded=0;orthogonalLoop=1;jettySize=auto;html=1;startArrow=classic;startFill=1;endArrow=none;endFill=0;" parent="38" source="zkfFHV4jXpPFQw0GAbJ--0" target="erv2LzWRWnAIhKKiP17V-38" edge="1"><mxGeometry relative="1" as="geometry"/></mxCell><mxCell id="erv2LzWRWnAIhKKiP17V-58" value="Game Object Inheritance Tree" style="text;html=1;align=center;verticalAlign=middle;resizable=0;points=[];autosize=1;strokeColor=none;fillColor=none;fontSize=30;container=0;" parent="38" vertex="1"><mxGeometry y="136" width="430" height="50" as="geometry"/></mxCell><mxCell id="69" value="" style="group" parent="71" vertex="1" connectable="0"><mxGeometry x="14" y="330.03999999999996" width="1030" height="230" as="geometry"/></mxCell><mxCell id="66" value="" style="rounded=0;whiteSpace=wrap;html=1;" parent="69" vertex="1"><mxGeometry width="1030" height="230" as="geometry"/></mxCell><mxCell id="65" value="" style="group" parent="69" vertex="1" connectable="0"><mxGeometry x="10" y="10" width="1010" height="211.62" as="geometry"/></mxCell><mxCell id="56" value="" style="group" parent="65" vertex="1" connectable="0"><mxGeometry x="510" width="500" height="100" as="geometry"/></mxCell><mxCell id="49" value="Attack Base (TBC)" style="swimlane;fontStyle=0;align=center;verticalAlign=top;childLayout=stackLayout;horizontal=1;startSize=88;horizontalStack=0;resizeParent=1;resizeLast=0;collapsible=1;marginBottom=0;rounded=0;shadow=0;strokeWidth=1;container=0;" parent="56" vertex="1"><mxGeometry x="170" width="160" height="29.19" as="geometry"><mxRectangle x="230" y="140" width="160" height="26" as="alternateBounds"/></mxGeometry></mxCell><mxCell id="50" value="Melee" style="swimlane;fontStyle=0;align=center;verticalAlign=top;childLayout=stackLayout;horizontal=1;startSize=88;horizontalStack=0;resizeParent=1;resizeLast=0;collapsible=1;marginBottom=0;rounded=0;shadow=0;strokeWidth=1;container=0;" parent="56" vertex="1"><mxGeometry x="170" y="70" width="160" height="29.19" as="geometry"><mxRectangle x="230" y="140" width="160" height="26" as="alternateBounds"/></mxGeometry></mxCell><mxCell id="54" style="edgeStyle=orthogonalEdgeStyle;rounded=0;orthogonalLoop=1;jettySize=auto;html=1;exitX=0.5;exitY=1;exitDx=0;exitDy=0;entryX=0.5;entryY=0;entryDx=0;entryDy=0;" parent="56" source="49" target="50" edge="1"><mxGeometry relative="1" as="geometry"/></mxCell><mxCell id="51" value="Ranged" style="swimlane;fontStyle=0;align=center;verticalAlign=top;childLayout=stackLayout;horizontal=1;startSize=88;horizontalStack=0;resizeParent=1;resizeLast=0;collapsible=1;marginBottom=0;rounded=0;shadow=0;strokeWidth=1;container=0;" parent="56" vertex="1"><mxGeometry y="70" width="160" height="29.19" as="geometry"><mxRectangle x="230" y="140" width="160" height="26" as="alternateBounds"/></mxGeometry></mxCell><mxCell id="53" style="edgeStyle=orthogonalEdgeStyle;rounded=0;orthogonalLoop=1;jettySize=auto;html=1;exitX=0.5;exitY=1;exitDx=0;exitDy=0;entryX=0.5;entryY=0;entryDx=0;entryDy=0;" parent="56" source="49" target="51" edge="1"><mxGeometry relative="1" as="geometry"/></mxCell><mxCell id="52" value="Area Of Effect" style="swimlane;fontStyle=0;align=center;verticalAlign=top;childLayout=stackLayout;horizontal=1;startSize=88;horizontalStack=0;resizeParent=1;resizeLast=0;collapsible=1;marginBottom=0;rounded=0;shadow=0;strokeWidth=1;container=0;" parent="56" vertex="1"><mxGeometry x="340" y="70.80999999999995" width="160" height="29.19" as="geometry"><mxRectangle x="230" y="140" width="160" height="26" as="alternateBounds"/></mxGeometry></mxCell><mxCell id="55" style="edgeStyle=orthogonalEdgeStyle;rounded=0;orthogonalLoop=1;jettySize=auto;html=1;exitX=0.5;exitY=1;exitDx=0;exitDy=0;entryX=0.5;entryY=0;entryDx=0;entryDy=0;" parent="56" source="49" target="52" edge="1"><mxGeometry relative="1" as="geometry"/></mxCell><mxCell id="63" value="" style="group" parent="65" vertex="1" connectable="0"><mxGeometry x="80" y="109.99999999999989" width="840" height="101.62000000000012" as="geometry"/></mxCell><mxCell id="erv2LzWRWnAIhKKiP17V-68" value="Status Effect" style="swimlane;fontStyle=0;align=center;verticalAlign=top;childLayout=stackLayout;horizontal=1;startSize=88;horizontalStack=0;resizeParent=1;resizeLast=0;collapsible=1;marginBottom=0;rounded=0;shadow=0;strokeWidth=1;container=0;" parent="63" vertex="1"><mxGeometry x="680" y="70.58000000000004" width="160" height="29.19" as="geometry"><mxRectangle x="230" y="140" width="160" height="26" as="alternateBounds"/></mxGeometry></mxCell><mxCell id="erv2LzWRWnAIhKKiP17V-80" value="Upgrade" style="swimlane;fontStyle=0;align=center;verticalAlign=top;childLayout=stackLayout;horizontal=1;startSize=88;horizontalStack=0;resizeParent=1;resizeLast=0;collapsible=1;marginBottom=0;rounded=0;shadow=0;strokeWidth=1;container=0;" parent="63" vertex="1"><mxGeometry x="340" y="70.58000000000015" width="160" height="31.04" as="geometry"><mxRectangle x="230" y="140" width="160" height="26" as="alternateBounds"/></mxGeometry></mxCell><mxCell id="15" value="Instant Effect" style="swimlane;fontStyle=0;align=center;verticalAlign=top;childLayout=stackLayout;horizontal=1;startSize=88;horizontalStack=0;resizeParent=1;resizeLast=0;collapsible=1;marginBottom=0;rounded=0;shadow=0;strokeWidth=1;container=0;" parent="63" vertex="1"><mxGeometry x="510" y="70.58000000000015" width="160" height="30" as="geometry"><mxRectangle x="230" y="140" width="160" height="26" as="alternateBounds"/></mxGeometry></mxCell><mxCell id="27" value="Health" style="swimlane;fontStyle=0;align=center;verticalAlign=top;childLayout=stackLayout;horizontal=1;startSize=88;horizontalStack=0;resizeParent=1;resizeLast=0;collapsible=1;marginBottom=0;rounded=0;shadow=0;strokeWidth=1;container=0;" parent="63" vertex="1"><mxGeometry y="70.58000000000015" width="160" height="30" as="geometry"><mxRectangle x="230" y="140" width="160" height="26" as="alternateBounds"/></mxGeometry></mxCell><mxCell id="23" value="Armour" style="swimlane;fontStyle=0;align=center;verticalAlign=top;childLayout=stackLayout;horizontal=1;startSize=88;horizontalStack=0;resizeParent=1;resizeLast=0;collapsible=1;marginBottom=0;rounded=0;shadow=0;strokeWidth=1;container=0;" parent="63" vertex="1"><mxGeometry x="170" y="70.58000000000015" width="160" height="30" as="geometry"><mxRectangle x="230" y="140" width="160" height="26" as="alternateBounds"/></mxGeometry></mxCell><mxCell id="58" style="edgeStyle=orthogonalEdgeStyle;rounded=0;orthogonalLoop=1;jettySize=auto;html=1;exitX=0.5;exitY=1;exitDx=0;exitDy=0;entryX=0.5;entryY=0;entryDx=0;entryDy=0;" parent="63" source="57" target="erv2LzWRWnAIhKKiP17V-80" edge="1"><mxGeometry relative="1" as="geometry"/></mxCell><mxCell id="59" style="edgeStyle=orthogonalEdgeStyle;rounded=0;orthogonalLoop=1;jettySize=auto;html=1;exitX=0.5;exitY=1;exitDx=0;exitDy=0;entryX=0.5;entryY=0;entryDx=0;entryDy=0;" parent="63" source="57" target="23" edge="1"><mxGeometry relative="1" as="geometry"/></mxCell><mxCell id="60" style="edgeStyle=orthogonalEdgeStyle;rounded=0;orthogonalLoop=1;jettySize=auto;html=1;exitX=0.5;exitY=1;exitDx=0;exitDy=0;entryX=0.5;entryY=0;entryDx=0;entryDy=0;" parent="63" source="57" target="27" edge="1"><mxGeometry relative="1" as="geometry"/></mxCell><mxCell id="61" style="edgeStyle=orthogonalEdgeStyle;rounded=0;orthogonalLoop=1;jettySize=auto;html=1;exitX=0.5;exitY=1;exitDx=0;exitDy=0;entryX=0.5;entryY=0;entryDx=0;entryDy=0;" parent="63" source="57" target="15" edge="1"><mxGeometry relative="1" as="geometry"/></mxCell><mxCell id="62" style="edgeStyle=orthogonalEdgeStyle;rounded=0;orthogonalLoop=1;jettySize=auto;html=1;exitX=0.5;exitY=1;exitDx=0;exitDy=0;entryX=0.5;entryY=0;entryDx=0;entryDy=0;" parent="63" source="57" target="erv2LzWRWnAIhKKiP17V-68" edge="1"><mxGeometry relative="1" as="geometry"/></mxCell><mxCell id="57" value="Characteristic Base (TBC)" style="swimlane;fontStyle=0;align=center;verticalAlign=top;childLayout=stackLayout;horizontal=1;startSize=30;horizontalStack=0;resizeParent=1;resizeLast=0;collapsible=1;marginBottom=0;rounded=0;shadow=0;strokeWidth=1;container=0;" parent="63" vertex="1"><mxGeometry x="340" width="160" height="30" as="geometry"><mxRectangle x="230" y="140" width="160" height="26" as="alternateBounds"/></mxGeometry></mxCell><mxCell id="64" value="" style="group" parent="65" vertex="1" connectable="0"><mxGeometry width="500" height="99.19000000000005" as="geometry"/></mxCell><mxCell id="39" value="Movement Base (TBC)" style="swimlane;fontStyle=0;align=center;verticalAlign=top;childLayout=stackLayout;horizontal=1;startSize=88;horizontalStack=0;resizeParent=1;resizeLast=0;collapsible=1;marginBottom=0;rounded=0;shadow=0;strokeWidth=1;container=0;" parent="64" vertex="1"><mxGeometry x="170" width="160" height="29.19" as="geometry"><mxRectangle x="230" y="140" width="160" height="26" as="alternateBounds"/></mxGeometry></mxCell><mxCell id="40" value="Follow" style="swimlane;fontStyle=0;align=center;verticalAlign=top;childLayout=stackLayout;horizontal=1;startSize=88;horizontalStack=0;resizeParent=1;resizeLast=0;collapsible=1;marginBottom=0;rounded=0;shadow=0;strokeWidth=1;container=0;" parent="64" vertex="1"><mxGeometry y="70" width="160" height="29.19" as="geometry"><mxRectangle x="230" y="140" width="160" height="26" as="alternateBounds"/></mxGeometry></mxCell><mxCell id="44" style="edgeStyle=orthogonalEdgeStyle;rounded=0;orthogonalLoop=1;jettySize=auto;html=1;exitX=0.5;exitY=1;exitDx=0;exitDy=0;entryX=0.5;entryY=0;entryDx=0;entryDy=0;" parent="64" source="39" target="40" edge="1"><mxGeometry relative="1" as="geometry"/></mxCell><mxCell id="42" value="Run Away" style="swimlane;fontStyle=0;align=center;verticalAlign=top;childLayout=stackLayout;horizontal=1;startSize=88;horizontalStack=0;resizeParent=1;resizeLast=0;collapsible=1;marginBottom=0;rounded=0;shadow=0;strokeWidth=1;container=0;" parent="64" vertex="1"><mxGeometry x="170" y="70" width="160" height="29.19" as="geometry"><mxRectangle x="230" y="140" width="160" height="26" as="alternateBounds"/></mxGeometry></mxCell><mxCell id="43" style="edgeStyle=orthogonalEdgeStyle;rounded=0;orthogonalLoop=1;jettySize=auto;html=1;exitX=0.5;exitY=1;exitDx=0;exitDy=0;entryX=0.5;entryY=0;entryDx=0;entryDy=0;" parent="64" source="39" target="42" edge="1"><mxGeometry relative="1" as="geometry"/></mxCell><mxCell id="45" value="Steering" style="swimlane;fontStyle=0;align=center;verticalAlign=top;childLayout=stackLayout;horizontal=1;startSize=88;horizontalStack=0;resizeParent=1;resizeLast=0;collapsible=1;marginBottom=0;rounded=0;shadow=0;strokeWidth=1;container=0;" parent="64" vertex="1"><mxGeometry x="340" y="70" width="160" height="29.19" as="geometry"><mxRectangle x="230" y="140" width="160" height="26" as="alternateBounds"/></mxGeometry></mxCell><mxCell id="46" style="edgeStyle=orthogonalEdgeStyle;rounded=0;orthogonalLoop=1;jettySize=auto;html=1;exitX=0.5;exitY=1;exitDx=0;exitDy=0;entryX=0.5;entryY=0;entryDx=0;entryDy=0;" parent="64" source="39" target="45" edge="1"><mxGeometry relative="1" as="geometry"/></mxCell><mxCell id="68" value="Component Inheritance" style="text;html=1;align=center;verticalAlign=middle;resizable=0;points=[];autosize=1;strokeColor=none;fillColor=none;fontSize=30;container=0;" parent="69" vertex="1"><mxGeometry x="345" width="340" height="50" as="geometry"/></mxCell></root></mxGraphModel></diagram></mxfile>
